<!--?xml version="1.0" encoding="utf-8"?-->
<!-- Generator: Adobe Illustrator 18.1.1, SVG Export Plug-In . SVG Version: 6.00 Build 0)  -->

<svg version="1.1" id="_x32_" xmlns="http://www.w3.org/2000/svg" xmlns:xlink="http://www.w3.org/1999/xlink" x="0px" y="0px" viewBox="0 0 512 512" style="width: 256px; height: 256px; opacity: 1;" xml:space="preserve">
<style type="text/css">
	.st0{fill:#4B4B4B;}
</style>
<g>
	<polygon class="st0" points="167.433,342.68 332.05,386.736 332.05,372.31 167.433,328.255 	" style="fill: rgb(75, 75, 75);"></polygon>
	<polygon class="st0" points="167.433,275.437 332.05,319.493 332.05,305.068 167.433,261.012 	" style="fill: rgb(75, 75, 75);"></polygon>
	<polygon class="st0" points="167.433,208.195 332.05,252.25 332.05,237.826 167.433,193.77 	" style="fill: rgb(75, 75, 75);"></polygon>
	<polygon class="st0" points="281.041,156.954 167.433,126.535 167.433,140.96 281.041,171.324 	" style="fill: rgb(75, 75, 75);"></polygon>
	<path class="st0" d="M413.903,192.727l-1.268-1.8c0-0.008-0.015-0.016-0.015-0.031L321.898,61.448v-0.007l-1.452-2.055
		c-1.561-2.233-3.848-3.84-6.475-4.543l-2.441-0.664L110.613,0.394c-3.476-0.934-7.216-0.185-10.06,2.002
		c-2.858,2.194-4.543,5.602-4.543,9.202v409.358c0,5.246,3.523,9.843,8.607,11.195l296.784,79.458
		c3.462,0.927,7.202,0.185,10.045-2.009c2.859-2.195,4.543-5.602,4.543-9.202V199.364
		C415.99,196.992,415.247,194.666,413.903,192.727z M313.677,94.146l15.792,22.545l51.303,73.208l-67.096-17.964V94.146z
		 M390.492,482.28l-268.97-72.01V29.716l178.232,47.717v99.841c0,3.144,2.116,5.903,5.161,6.714l85.577,22.917V482.28z" style="fill: rgb(75, 75, 75);"></path>
</g>
</svg>
